{
    "asset" : {
        "generator" : "Khronos glTF Blender I/O v1.1.45",
        "version" : "2.0"
    },
    "scene" : 0,
    "scenes" : [
        {
            "name" : "Scene",
            "nodes" : [
                0
            ]
        }
    ],
    "nodes" : [
        {
            "mesh" : 0,
            "name" : "controller_left_button_A_one_material",
            "rotation" : [
                0.2538961172103882,
                0.6599554419517517,
                0.2538946866989136,
                -0.6599493026733398
            ],
            "translation" : [
                -0.6492220163345337,
                0.14737999439239502,
                -0.2249619960784912
            ]
        }
    ],
    "meshes" : [
        {
            "name" : "Cylinder.040",
            "primitives" : [
                {
                    "attributes" : {
                        "POSITION" : 0,
                        "NORMAL" : 1,
                        "TEXCOORD_0" : 2,
                        "TEXCOORD_1" : 3
                    },
                    "indices" : 4
                }
            ]
        }
    ],
    "accessors" : [
        {
            "bufferView" : 0,
            "componentType" : 5126,
            "count" : 120,
            "max" : [
                0.0246286541223526,
                0.043233633041381836,
                -0.002120494842529297
            ],
            "min" : [
                0.01203453540802002,
                0.03214547038078308,
                -0.013857841491699219
            ],
            "type" : "VEC3"
        },
        {
            "bufferView" : 1,
            "componentType" : 5126,
            "count" : 120,
            "type" : "VEC3"
        },
        {
            "bufferView" : 2,
            "componentType" : 5126,
            "count" : 120,
            "type" : "VEC2"
        },
        {
            "bufferView" : 3,
            "componentType" : 5126,
            "count" : 120,
            "type" : "VEC2"
        },
        {
            "bufferView" : 4,
            "componentType" : 5123,
            "count" : 204,
            "type" : "SCALAR"
        }
    ],
    "bufferViews" : [
        {
            "buffer" : 0,
            "byteLength" : 1440,
            "byteOffset" : 0
        },
        {
            "buffer" : 0,
            "byteLength" : 1440,
            "byteOffset" : 1440
        },
        {
            "buffer" : 0,
            "byteLength" : 960,
            "byteOffset" : 2880
        },
        {
            "buffer" : 0,
            "byteLength" : 960,
            "byteOffset" : 3840
        },
        {
            "buffer" : 0,
            "byteLength" : 408,
            "byteOffset" : 4800
        }
    ],
    "buffers" : [
        {
            "byteLength" : 5208,
            "uri" : "data:application/octet-stream;base64,"
        }
    ]
}
