{
    "asset" : {
        "generator" : "Khronos glTF Blender I/O v1.1.45",
        "version" : "2.0"
    },
    "scene" : 0,
    "scenes" : [
        {
            "name" : "Scene",
            "nodes" : [
                0
            ]
        }
    ],
    "nodes" : [
        {
            "mesh" : 0,
            "name" : "controller_left_one_material",
            "rotation" : [
                0.2538961172103882,
                0.6599554419517517,
                0.2538946866989136,
                -0.6599493026733398
            ],
            "translation" : [
                -0.6492220163345337,
                0.14737999439239502,
                -0.2249619960784912
            ]
        }
    ],
    "meshes" : [
        {
            "name" : "Cylinder.015",
            "primitives" : [
                {
                    "attributes" : {
                        "POSITION" : 0,
                        "NORMAL" : 1,
                        "TEXCOORD_0" : 2,
                        "TEXCOORD_1" : 3
                    },
                    "indices" : 4
                }
            ]
        }
    ],
    "accessors" : [
        {
            "bufferView" : 0,
            "componentType" : 5126,
            "count" : 838,
            "max" : [
                0.035698771476745605,
                0.06448936462402344,
                0.03258788585662842
            ],
            "min" : [
                -0.01635710895061493,
                -0.049189984798431396,
                -0.043636858463287354
            ],
            "type" : "VEC3"
        },
        {
            "bufferView" : 1,
            "componentType" : 5126,
            "count" : 838,
            "type" : "VEC3"
        },
        {
            "bufferView" : 2,
            "componentType" : 5126,
            "count" : 838,
            "type" : "VEC2"
        },
        {
            "bufferView" : 3,
            "componentType" : 5126,
            "count" : 838,
            "type" : "VEC2"
        },
        {
            "bufferView" : 4,
            "componentType" : 5123,
            "count" : 1278,
            "type" : "SCALAR"
        }
    ],
    "bufferViews" : [
        {
            "buffer" : 0,
            "byteLength" : 10056,
            "byteOffset" : 0
        },
        {
            "buffer" : 0,
            "byteLength" : 10056,
            "byteOffset" : 10056
        },
        {
            "buffer" : 0,
            "byteLength" : 6704,
            "byteOffset" : 20112
        },
        {
            "buffer" : 0,
            "byteLength" : 6704,
            "byteOffset" : 26816
        },
        {
            "buffer" : 0,
            "byteLength" : 2556,
            "byteOffset" : 33520
        }
    ],
    "buffers" : [
        {
            "byteLength" : 36076,
            "uri" : "data:application/octet-stream;base64,"
        }
    ]
}
