{
    "asset" : {
        "generator" : "Khronos glTF Blender I/O v1.1.45",
        "version" : "2.0"
    },
    "scene" : 0,
    "scenes" : [
        {
            "name" : "Scene",
            "nodes" : [
                0
            ]
        }
    ],
    "nodes" : [
        {
            "mesh" : 0,
            "name" : "controller_right_button_grab_one_material",
            "rotation" : [
                0.2538961172103882,
                0.6599554419517517,
                0.2538946866989136,
                -0.6599493026733398
            ],
            "translation" : [
                -0.6492220163345337,
                0.14737996459007263,
                0.2249619960784912
            ]
        }
    ],
    "meshes" : [
        {
            "name" : "Cylinder.017",
            "primitives" : [
                {
                    "attributes" : {
                        "POSITION" : 0,
                        "NORMAL" : 1,
                        "TEXCOORD_0" : 2,
                        "TEXCOORD_1" : 3
                    },
                    "indices" : 4
                }
            ]
        }
    ],
    "accessors" : [
        {
            "bufferView" : 0,
            "componentType" : 5126,
            "count" : 292,
            "max" : [
                -0.01368415355682373,
                0.01269635558128357,
                0.004691481590270996
            ],
            "min" : [
                -0.029337242245674133,
                -0.002412259578704834,
                -0.02139800786972046
            ],
            "type" : "VEC3"
        },
        {
            "bufferView" : 1,
            "componentType" : 5126,
            "count" : 292,
            "type" : "VEC3"
        },
        {
            "bufferView" : 2,
            "componentType" : 5126,
            "count" : 292,
            "type" : "VEC2"
        },
        {
            "bufferView" : 3,
            "componentType" : 5126,
            "count" : 292,
            "type" : "VEC2"
        },
        {
            "bufferView" : 4,
            "componentType" : 5123,
            "count" : 444,
            "type" : "SCALAR"
        }
    ],
    "bufferViews" : [
        {
            "buffer" : 0,
            "byteLength" : 3504,
            "byteOffset" : 0
        },
        {
            "buffer" : 0,
            "byteLength" : 3504,
            "byteOffset" : 3504
        },
        {
            "buffer" : 0,
            "byteLength" : 2336,
            "byteOffset" : 7008
        },
        {
            "buffer" : 0,
            "byteLength" : 2336,
            "byteOffset" : 9344
        },
        {
            "buffer" : 0,
            "byteLength" : 888,
            "byteOffset" : 11680
        }
    ],
    "buffers" : [
        {
            "byteLength" : 12568,
            "uri" : "data:application/octet-stream;base64,"
        }
    ]
}
