{
    "asset" : {
        "generator" : "Khronos glTF Blender I/O v1.1.45",
        "version" : "2.0"
    },
    "scene" : 0,
    "scenes" : [
        {
            "name" : "Scene",
            "nodes" : [
                0
            ]
        }
    ],
    "nodes" : [
        {
            "mesh" : 0,
            "name" : "controller_right_one_material",
            "rotation" : [
                0.2538961172103882,
                0.6599554419517517,
                0.2538946866989136,
                -0.6599493026733398
            ],
            "translation" : [
                -0.6492220163345337,
                0.14737996459007263,
                0.2249619960784912
            ]
        }
    ],
    "meshes" : [
        {
            "name" : "Cylinder.034",
            "primitives" : [
                {
                    "attributes" : {
                        "POSITION" : 0,
                        "NORMAL" : 1,
                        "TEXCOORD_0" : 2,
                        "TEXCOORD_1" : 3
                    },
                    "indices" : 4
                }
            ]
        }
    ],
    "accessors" : [
        {
            "bufferView" : 0,
            "componentType" : 5126,
            "count" : 958,
            "max" : [
                0.016346022486686707,
                0.06448882818222046,
                0.03259187936782837
            ],
            "min" : [
                -0.03570985794067383,
                -0.049190521240234375,
                -0.0436328649520874
            ],
            "type" : "VEC3"
        },
        {
            "bufferView" : 1,
            "componentType" : 5126,
            "count" : 958,
            "type" : "VEC3"
        },
        {
            "bufferView" : 2,
            "componentType" : 5126,
            "count" : 958,
            "type" : "VEC2"
        },
        {
            "bufferView" : 3,
            "componentType" : 5126,
            "count" : 958,
            "type" : "VEC2"
        },
        {
            "bufferView" : 4,
            "componentType" : 5123,
            "count" : 1482,
            "type" : "SCALAR"
        }
    ],
    "bufferViews" : [
        {
            "buffer" : 0,
            "byteLength" : 11496,
            "byteOffset" : 0
        },
        {
            "buffer" : 0,
            "byteLength" : 11496,
            "byteOffset" : 11496
        },
        {
            "buffer" : 0,
            "byteLength" : 7664,
            "byteOffset" : 22992
        },
        {
            "buffer" : 0,
            "byteLength" : 7664,
            "byteOffset" : 30656
        },
        {
            "buffer" : 0,
            "byteLength" : 2964,
            "byteOffset" : 38320
        }
    ],
    "buffers" : [
        {
            "byteLength" : 41284,
            "uri" : "data:application/octet-stream;base64,"
        }
    ]
}
