{
    "asset" : {
        "generator" : "Khronos glTF Blender I/O v1.1.45",
        "version" : "2.0"
    },
    "scene" : 0,
    "scenes" : [
        {
            "name" : "Scene",
            "nodes" : [
                0
            ]
        }
    ],
    "nodes" : [
        {
            "mesh" : 0,
            "name" : "polyhedron_delete",
            "rotation" : [
                0.23193031549453735,
                0.056407105177640915,
                -0.0365169458091259,
                0.9704087376594543
            ],
            "translation" : [
                -0.5524728894233704,
                0.15917417407035828,
                0.215593159198761
            ]
        }
    ],
    "meshes" : [
        {
            "name" : "Icosphere.003",
            "primitives" : [
                {
                    "attributes" : {
                        "POSITION" : 0,
                        "NORMAL" : 1,
                        "TEXCOORD_0" : 2
                    },
                    "indices" : 3
                }
            ]
        }
    ],
    "accessors" : [
        {
            "bufferView" : 0,
            "componentType" : 5126,
            "count" : 720,
            "max" : [
                0.021490449085831642,
                0.024027112871408463,
                0.0204384233802557
            ],
            "min" : [
                -0.021490449085831642,
                -0.024027112871408463,
                -0.0204384233802557
            ],
            "type" : "VEC3"
        },
        {
            "bufferView" : 1,
            "componentType" : 5126,
            "count" : 720,
            "type" : "VEC3"
        },
        {
            "bufferView" : 2,
            "componentType" : 5126,
            "count" : 720,
            "type" : "VEC2"
        },
        {
            "bufferView" : 3,
            "componentType" : 5123,
            "count" : 1080,
            "type" : "SCALAR"
        }
    ],
    "bufferViews" : [
        {
            "buffer" : 0,
            "byteLength" : 8640,
            "byteOffset" : 0
        },
        {
            "buffer" : 0,
            "byteLength" : 8640,
            "byteOffset" : 8640
        },
        {
            "buffer" : 0,
            "byteLength" : 5760,
            "byteOffset" : 17280
        },
        {
            "buffer" : 0,
            "byteLength" : 2160,
            "byteOffset" : 23040
        }
    ],
    "buffers" : [
        {
            "byteLength" : 25200,
            "uri" : "data:application/octet-stream;base64,"
        }
    ]
}
