{
    "asset" : {
        "generator" : "Khronos glTF Blender I/O v1.1.45",
        "version" : "2.0"
    },
    "scene" : 0,
    "scenes" : [
        {
            "name" : "Scene",
            "nodes" : [
                0
            ]
        }
    ],
    "nodes" : [
        {
            "mesh" : 0,
            "name" : "controller_right_button_toggle_one_material",
            "rotation" : [
                0.2538961172103882,
                0.6599554419517517,
                0.2538946866989136,
                -0.6599493026733398
            ],
            "translation" : [
                -0.6492220759391785,
                0.14738047122955322,
                0.22496213018894196
            ]
        }
    ],
    "meshes" : [
        {
            "name" : "Cylinder.013",
            "primitives" : [
                {
                    "attributes" : {
                        "POSITION" : 0,
                        "NORMAL" : 1,
                        "TEXCOORD_0" : 2,
                        "TEXCOORD_1" : 3
                    },
                    "indices" : 4
                }
            ]
        }
    ],
    "accessors" : [
        {
            "bufferView" : 0,
            "componentType" : 5126,
            "count" : 408,
            "max" : [
                0.010402885265648365,
                0.05933732911944389,
                -0.008260582573711872
            ],
            "min" : [
                -0.01226062886416912,
                0.03883427754044533,
                -0.029305456206202507
            ],
            "type" : "VEC3"
        },
        {
            "bufferView" : 1,
            "componentType" : 5126,
            "count" : 408,
            "type" : "VEC3"
        },
        {
            "bufferView" : 2,
            "componentType" : 5126,
            "count" : 408,
            "type" : "VEC2"
        },
        {
            "bufferView" : 3,
            "componentType" : 5126,
            "count" : 408,
            "type" : "VEC2"
        },
        {
            "bufferView" : 4,
            "componentType" : 5123,
            "count" : 636,
            "type" : "SCALAR"
        }
    ],
    "bufferViews" : [
        {
            "buffer" : 0,
            "byteLength" : 4896,
            "byteOffset" : 0
        },
        {
            "buffer" : 0,
            "byteLength" : 4896,
            "byteOffset" : 4896
        },
        {
            "buffer" : 0,
            "byteLength" : 3264,
            "byteOffset" : 9792
        },
        {
            "buffer" : 0,
            "byteLength" : 3264,
            "byteOffset" : 13056
        },
        {
            "buffer" : 0,
            "byteLength" : 1272,
            "byteOffset" : 16320
        }
    ],
    "buffers" : [
        {
            "byteLength" : 17592,
            "uri" : "data:application/octet-stream;base64,"
        }
    ]
}
