{
    "asset" : {
        "generator" : "Khronos glTF Blender I/O v1.1.45",
        "version" : "2.0"
    },
    "scene" : 0,
    "scenes" : [
        {
            "name" : "Scene",
            "nodes" : [
                0
            ]
        }
    ],
    "nodes" : [
        {
            "mesh" : 0,
            "name" : "controller_right_button_A_one_material",
            "rotation" : [
                0.2538961172103882,
                0.6599554419517517,
                0.2538946866989136,
                -0.6599493026733398
            ],
            "translation" : [
                -0.6492220759391785,
                0.14738047122955322,
                0.22496213018894196
            ]
        }
    ],
    "meshes" : [
        {
            "name" : "Cylinder.016",
            "primitives" : [
                {
                    "attributes" : {
                        "POSITION" : 0,
                        "NORMAL" : 1,
                        "TEXCOORD_0" : 2,
                        "TEXCOORD_1" : 3
                    },
                    "indices" : 4
                }
            ]
        }
    ],
    "accessors" : [
        {
            "bufferView" : 0,
            "componentType" : 5126,
            "count" : 120,
            "max" : [
                -0.012045720592141151,
                0.0432327464222908,
                -0.0021168512757867575
            ],
            "min" : [
                -0.024639850482344627,
                0.032144587486982346,
                -0.013854185119271278
            ],
            "type" : "VEC3"
        },
        {
            "bufferView" : 1,
            "componentType" : 5126,
            "count" : 120,
            "type" : "VEC3"
        },
        {
            "bufferView" : 2,
            "componentType" : 5126,
            "count" : 120,
            "type" : "VEC2"
        },
        {
            "bufferView" : 3,
            "componentType" : 5126,
            "count" : 120,
            "type" : "VEC2"
        },
        {
            "bufferView" : 4,
            "componentType" : 5123,
            "count" : 204,
            "type" : "SCALAR"
        }
    ],
    "bufferViews" : [
        {
            "buffer" : 0,
            "byteLength" : 1440,
            "byteOffset" : 0
        },
        {
            "buffer" : 0,
            "byteLength" : 1440,
            "byteOffset" : 1440
        },
        {
            "buffer" : 0,
            "byteLength" : 960,
            "byteOffset" : 2880
        },
        {
            "buffer" : 0,
            "byteLength" : 960,
            "byteOffset" : 3840
        },
        {
            "buffer" : 0,
            "byteLength" : 408,
            "byteOffset" : 4800
        }
    ],
    "buffers" : [
        {
            "byteLength" : 5208,
            "uri" : "data:application/octet-stream;base64,"
        }
    ]
}
