{
    "asset" : {
        "generator" : "Khronos glTF Blender I/O v1.1.45",
        "version" : "2.0"
    },
    "scene" : 0,
    "scenes" : [
        {
            "name" : "Scene",
            "nodes" : [
                0,
                1
            ]
        }
    ],
    "nodes" : [
        {
            "name" : "Camera",
            "rotation" : [
                0.6401863098144531,
                0.2612873911857605,
                -0.24630211293697357,
                0.6791359186172485
            ],
            "translation" : [
                1.5654000043869019,
                466.29119873046875,
                1.5806000232696533
            ]
        },
        {
            "mesh" : 0,
            "name" : "controller_right_one_material",
            "rotation" : [
                0.2538961172103882,
                0.6599554419517517,
                0.2538946866989136,
                -0.6599493026733398
            ],
            "translation" : [
                -0.6699150204658508,
                0.1448580026626587,
                0.023127999156713486
            ]
        }
    ],
    "meshes" : [
        {
            "name" : "Cylinder.004",
            "primitives" : [
                {
                    "attributes" : {
                        "POSITION" : 0,
                        "NORMAL" : 1,
                        "TEXCOORD_0" : 2,
                        "TEXCOORD_1" : 3
                    },
                    "indices" : 4
                }
            ]
        }
    ],
    "accessors" : [
        {
            "bufferView" : 0,
            "componentType" : 5126,
            "count" : 2498,
            "max" : [
                0.06310189515352249,
                0.23864391446113586,
                0.08138775080442429
            ],
            "min" : [
                -0.1093602403998375,
                -0.12283769249916077,
                -0.20522922277450562
            ],
            "type" : "VEC3"
        },
        {
            "bufferView" : 1,
            "componentType" : 5126,
            "count" : 2498,
            "type" : "VEC3"
        },
        {
            "bufferView" : 2,
            "componentType" : 5126,
            "count" : 2498,
            "type" : "VEC2"
        },
        {
            "bufferView" : 3,
            "componentType" : 5126,
            "count" : 2498,
            "type" : "VEC2"
        },
        {
            "bufferView" : 4,
            "componentType" : 5123,
            "count" : 3912,
            "type" : "SCALAR"
        }
    ],
    "bufferViews" : [
        {
            "buffer" : 0,
            "byteLength" : 29976,
            "byteOffset" : 0
        },
        {
            "buffer" : 0,
            "byteLength" : 29976,
            "byteOffset" : 29976
        },
        {
            "buffer" : 0,
            "byteLength" : 19984,
            "byteOffset" : 59952
        },
        {
            "buffer" : 0,
            "byteLength" : 19984,
            "byteOffset" : 79936
        },
        {
            "buffer" : 0,
            "byteLength" : 7824,
            "byteOffset" : 99920
        }
    ],
    "buffers" : [
        {
            "byteLength" : 107744,
            "uri" : "data:application/octet-stream;base64,"
        }
    ]
}
