{
    "asset" : {
        "generator" : "Khronos glTF Blender I/O v1.1.45",
        "version" : "2.0"
    },
    "scene" : 0,
    "scenes" : [
        {
            "name" : "Scene",
            "nodes" : [
                0
            ]
        }
    ],
    "nodes" : [
        {
            "mesh" : 0,
            "name" : "controller_right_button_trigger_one_material",
            "rotation" : [
                0.2538961172103882,
                0.6599554419517517,
                0.2538946866989136,
                -0.6599493026733398
            ],
            "translation" : [
                -0.6492220759391785,
                0.14738047122955322,
                0.22496213018894196
            ]
        }
    ],
    "meshes" : [
        {
            "name" : "Cylinder.012",
            "primitives" : [
                {
                    "attributes" : {
                        "POSITION" : 0,
                        "NORMAL" : 1,
                        "TEXCOORD_0" : 2,
                        "TEXCOORD_1" : 3
                    },
                    "indices" : 4
                }
            ]
        }
    ],
    "accessors" : [
        {
            "bufferView" : 0,
            "componentType" : 5126,
            "count" : 232,
            "max" : [
                0.003456392092630267,
                0.05271439626812935,
                -0.030117066577076912
            ],
            "min" : [
                -0.02301369421184063,
                0.02135562151670456,
                -0.05172606557607651
            ],
            "type" : "VEC3"
        },
        {
            "bufferView" : 1,
            "componentType" : 5126,
            "count" : 232,
            "type" : "VEC3"
        },
        {
            "bufferView" : 2,
            "componentType" : 5126,
            "count" : 232,
            "type" : "VEC2"
        },
        {
            "bufferView" : 3,
            "componentType" : 5126,
            "count" : 232,
            "type" : "VEC2"
        },
        {
            "bufferView" : 4,
            "componentType" : 5123,
            "count" : 354,
            "type" : "SCALAR"
        }
    ],
    "bufferViews" : [
        {
            "buffer" : 0,
            "byteLength" : 2784,
            "byteOffset" : 0
        },
        {
            "buffer" : 0,
            "byteLength" : 2784,
            "byteOffset" : 2784
        },
        {
            "buffer" : 0,
            "byteLength" : 1856,
            "byteOffset" : 5568
        },
        {
            "buffer" : 0,
            "byteLength" : 1856,
            "byteOffset" : 7424
        },
        {
            "buffer" : 0,
            "byteLength" : 708,
            "byteOffset" : 9280
        }
    ],
    "buffers" : [
        {
            "byteLength" : 9988,
            "uri" : "data:application/octet-stream;base64,"
        }
    ]
}
